<?xml version="1.0" standalone="no"?>
<!DOCTYPE svg PUBLIC "-//W3C//DTD SVG 20010904//EN"
 "http://www.w3.org/TR/2001/REC-SVG-20010904/DTD/svg10.dtd">
<svg version="1.0" xmlns="http://www.w3.org/2000/svg"
 width="630.000000pt" height="368.000000pt" viewBox="0 0 630.000000 368.000000"
 preserveAspectRatio="xMidYMid meet">

<g transform="translate(0.000000,368.000000) scale(0.100000,-0.100000)"
fill="#000000" stroke="none">
<path d="M1306 3134 c-3 -9 -6 -121 -6 -251 l0 -235 -37 6 c-149 25 -353 32
-371 14 -7 -7 -12 -40 -12 -80 l0 -67 -102 -3 -103 -3 0 -690 0 -690 445 -3
445 -3 24 -50 c34 -73 85 -104 171 -104 86 0 137 31 171 104 l24 50 445 3 445
3 3 684 c2 541 0 686 -10 693 -7 4 -55 8 -105 8 l-93 0 0 69 c0 99 3 97 -198
83 -92 -7 -179 -15 -194 -19 l-28 -5 0 235 c0 129 -3 242 -6 251 -5 14 -55 16
-454 16 -399 0 -449 -2 -454 -16z m844 -174 l0 -120 -390 0 -390 0 0 120 0
120 390 0 390 0 0 -120z m-590 -265 l0 -65 -95 0 -95 0 0 65 0 65 95 0 95 0 0
-65z m320 0 l0 -65 -120 0 -120 0 0 65 0 65 120 0 120 0 0 -65z m270 0 l0 -65
-95 0 -95 0 0 65 0 65 95 0 95 0 0 -65z m-895 -113 l40 -7 3 -314 c1 -212 6
-319 13 -328 9 -10 57 -13 210 -13 l199 0 0 -340 0 -340 -52 26 c-78 40 -170
72 -266 95 -98 22 -310 49 -394 49 l-58 0 0 597 0 596 133 -7 c72 -4 150 -10
172 -14z m1315 -577 l0 -595 -54 0 c-218 0 -496 -60 -658 -141 l-58 -29 0 340
0 340 198 0 c141 0 201 3 210 12 9 9 12 95 12 325 0 242 3 315 13 318 26 10
156 23 245 24 l92 1 0 -595z m-1010 475 l0 -71 -92 3 -93 3 -3 68 -3 67 96 0
95 0 0 -70z m320 0 l0 -70 -120 0 -120 0 0 70 0 70 120 0 120 0 0 -70z m268 3
l-3 -68 -92 -3 -93 -3 0 71 0 70 95 0 96 0 -3 -67z m-1266 -585 l3 -553 165
-12 c91 -6 194 -16 230 -23 166 -29 336 -88 423 -148 25 -18 51 -32 57 -32 6
0 26 11 43 24 49 37 172 92 269 120 110 32 258 54 418 62 69 4 131 11 138 17
9 7 12 130 12 554 l0 544 68 -3 67 -3 3 -622 2 -623 -438 0 c-327 0 -441 -3
-450 -12 -7 -7 -12 -25 -12 -41 0 -20 -11 -40 -33 -62 -58 -58 -116 -58 -174
0 -22 22 -33 42 -33 62 0 16 -5 34 -12 41 -9 9 -123 12 -450 12 l-438 0 0 625
0 625 70 0 70 0 2 -552z m678 372 l0 -71 -92 3 -93 3 -3 68 -3 67 96 0 95 0 0
-70z m320 0 l0 -70 -120 0 -120 0 0 70 0 70 120 0 120 0 0 -70z m268 3 l-3
-68 -95 0 -95 0 -3 44 c-7 89 -4 91 104 91 l95 0 -3 -67z m-588 -213 l0 -71
-92 3 -93 3 -3 68 -3 67 96 0 95 0 0 -70z m588 3 l-3 -68 -252 -3 -253 -2 0
70 0 70 255 0 256 0 -3 -67z"/>
<path d="M1412 1646 c7 -8 15 -12 17 -11 5 6 -10 25 -20 25 -5 0 -4 -6 3 -14z"/>
<path d="M1465 1649 c-4 -6 -4 -13 -1 -16 3 -4 6 -1 6 5 0 22 18 12 24 -13 8
-33 22 -32 40 2 l14 28 13 -28 c15 -34 25 -34 43 1 l14 27 11 -27 c14 -38 23
-36 10 2 -14 37 -32 38 -45 3 l-11 -28 -13 28 c-7 15 -17 27 -21 27 -5 0 -15
-12 -23 -27 l-14 -28 -11 28 c-11 28 -25 35 -36 16z"/>
<path d="M1367 1609 c7 -7 15 -10 18 -7 3 3 -2 9 -12 12 -14 6 -15 5 -6 -5z"/>
<path d="M1436 1608 c3 -4 9 -8 15 -8 5 0 9 4 9 8 0 5 -7 9 -15 9 -8 0 -12 -4
-9 -9z"/>
<path d="M2272 1646 c7 -8 15 -12 17 -11 5 6 -10 25 -20 25 -5 0 -4 -6 3 -14z"/>
<path d="M2325 1649 c-4 -6 -4 -13 -1 -16 3 -4 6 -1 6 5 0 22 18 12 24 -13 8
-33 22 -32 40 2 l14 28 13 -28 c15 -34 25 -34 43 1 l14 27 11 -27 c14 -38 23
-36 10 2 -14 37 -32 38 -45 3 l-11 -28 -13 28 c-7 15 -17 27 -21 27 -5 0 -15
-12 -23 -27 l-14 -28 -11 28 c-11 28 -25 35 -36 16z"/>
<path d="M2227 1609 c7 -7 15 -10 18 -7 3 3 -2 9 -12 12 -14 6 -15 5 -6 -5z"/>
<path d="M2296 1608 c3 -4 9 -8 15 -8 5 0 9 4 9 8 0 5 -7 9 -15 9 -8 0 -12 -4
-9 -9z"/>
<path d="M3085 1918 c-3 -7 -4 -162 -3 -343 l3 -330 75 0 75 0 3 273 2 272 86
0 c97 0 135 -14 153 -58 25 -61 -19 -122 -89 -122 -52 0 -63 -17 -58 -92 4
-59 9 -70 76 -170 l72 -108 85 0 c63 0 85 3 85 13 0 7 -34 62 -75 123 -66 96
-72 110 -57 119 9 6 38 31 64 56 37 38 49 58 58 102 23 100 -21 206 -103 249
-39 21 -57 23 -245 26 -161 3 -203 1 -207 -10z"/>
<path d="M3960 1873 c-80 -213 -230 -621 -230 -627 0 -12 149 -6 157 6 4 7 15
33 24 58 l16 45 133 0 134 0 21 -55 21 -55 77 -3 c58 -2 77 0 77 10 -1 7 -56
162 -123 343 l-122 330 -82 3 -81 3 -22 -58z m107 -371 c-44 -2 -81 -1 -83 1
-3 3 51 172 72 227 3 9 24 -37 48 -105 l43 -120 -80 -3z"/>
<path d="M4495 1918 c-3 -7 -4 -162 -3 -343 l3 -330 75 0 75 0 5 194 c5 212 3
208 60 106 55 -99 77 -125 110 -125 37 0 50 14 105 115 51 93 65 108 66 73 1
-24 68 274 69 305 0 15 -7 18 -37 15 -35 -3 -38 -6 -114 -143 -43 -77 -82
-141 -86 -142 -5 -2 -45 61 -88 139 l-80 143 -78 3 c-56 2 -79 -1 -82 -10z"/>
<path d="M2803 899 c-37 -11 -73 -52 -73 -84 0 -37 31 -65 100 -89 56 -19 65
-25 65 -46 0 -22 -5 -25 -42 -28 -34 -3 -44 1 -53 17 -14 28 -70 30 -70 3 0
-20 31 -52 67 -71 47 -24 141 -3 162 37 18 33 13 77 -10 98 -11 10 -48 28 -82
40 -53 18 -62 24 -62 45 0 20 5 24 37 27 29 2 40 -2 50 -17 16 -26 68 -29 68
-5 0 29 -20 52 -60 68 -45 18 -51 18 -97 5z"/>
<path d="M3225 896 c-54 -24 -69 -51 -73 -130 -5 -93 13 -141 62 -161 70 -30
147 -8 170 47 17 40 13 48 -22 48 -19 0 -30 -7 -37 -22 -12 -26 -67 -37 -91
-17 -21 17 -20 152 2 173 21 22 60 20 84 -4 26 -26 70 -27 70 -2 0 30 -29 61
-68 72 -47 13 -60 12 -97 -4z"/>
<path d="M3525 896 c-54 -24 -69 -51 -73 -130 -5 -93 13 -141 62 -161 45 -19
89 -19 126 0 50 26 60 51 60 146 0 100 -16 131 -78 149 -47 13 -60 12 -97 -4z
m86 -56 c16 -9 19 -22 19 -88 0 -88 -8 -102 -57 -102 -42 0 -53 21 -53 101 0
87 33 119 91 89z"/>
<path d="M5583 896 c-37 -17 -53 -43 -53 -85 0 -42 26 -65 104 -91 49 -16 66
-26 66 -40 0 -38 -72 -42 -96 -5 -19 29 -71 35 -80 10 -9 -21 20 -62 58 -81
49 -25 135 -15 165 20 26 30 31 82 10 110 -7 9 -41 27 -76 39 -69 24 -97 51
-71 67 24 16 56 11 75 -10 10 -11 31 -20 47 -20 26 0 29 3 26 27 -6 55 -107
90 -175 59z"/>
<path d="M3770 750 l0 -150 35 0 34 0 3 85 3 85 50 -83 c45 -73 54 -82 83 -85
l32 -3 0 150 0 151 -30 0 -30 0 0 -86 c0 -102 -3 -101 -70 10 -41 69 -48 76
-77 76 l-33 0 0 -150z"/>
<path d="M4070 870 c0 -28 2 -30 40 -30 l39 0 3 -117 3 -118 33 -3 32 -3 0
120 0 121 45 0 c43 0 45 1 45 30 l0 30 -120 0 -120 0 0 -30z"/>
<path d="M4415 888 c-2 -7 -27 -73 -55 -147 -27 -73 -50 -135 -50 -137 0 -2
15 -4 33 -4 26 0 36 6 45 25 10 22 18 25 67 25 49 0 57 -3 67 -25 9 -19 19
-25 45 -25 18 0 33 1 33 3 0 1 -25 67 -54 147 l-54 145 -36 3 c-23 2 -38 -2
-41 -10z m69 -155 c7 -21 4 -23 -29 -23 -34 0 -37 2 -31 25 3 13 11 37 17 52
l11 28 13 -30 c7 -16 16 -40 19 -52z"/>
<path d="M4650 750 l0 -150 101 0 c99 0 101 1 131 30 25 26 29 36 24 63 -4 17
-13 38 -20 45 -12 12 -12 18 0 41 21 39 17 59 -15 92 -28 28 -33 29 -125 29
l-96 0 0 -150z m178 62 c3 -18 -2 -23 -28 -28 -26 -6 -31 -11 -28 -33 2 -18
10 -27 25 -29 12 -2 27 -10 33 -18 21 -25 -6 -44 -61 -44 l-49 0 0 91 0 90 53
-3 c45 -3 52 -6 55 -26z"/>
<path d="M4970 750 l0 -150 110 0 110 0 0 30 0 30 -75 0 -75 0 0 120 0 120
-35 0 -35 0 0 -150z"/>
<path d="M5252 748 l3 -153 110 0 110 0 3 33 3 32 -80 0 -81 0 0 30 c0 29 0
29 68 32 65 3 67 4 70 31 l3 27 -70 0 -71 0 0 30 0 30 75 0 75 0 0 30 0 30
-110 0 -111 0 3 -152z"/>
</g>
</svg>
